# xmcd CD database file
#
# Track frame offsets:
#	150
#	23524
#	24580
#	53500
#	79097
#	95253
#	122443
#	143893
#
# Disc length: 2382 seconds
#
# Revision: 0
# Processed by: cddbd v1.5.2PL0 Copyright (c) Steve Scherf et al.
# Submitted via: CDex 1.51
#
DISCID=53094c08
DTITLE=Mojo Bllues - mojo blues
DYEAR=1900
DGENRE=Blues
TTITLE0=Anticipation of Desire 
TTITLE1=Introduction
TTITLE2=Tina Nina Nu
TTITLE3=Cofortable Smile
TTITLE4=Maybe
TTITLE5=Fellin' Blue
TTITLE6=Have My Husband
TTITLE7=Dear Stevie
EXTD=
EXTT0=
EXTT1=
EXTT2=
EXTT3=
EXTT4=
EXTT5=
EXTT6=
EXTT7=
PLAYORDER=
